<svg width="64" height="64" viewBox="0 0 64 64" fill="none" xmlns="http://www.w3.org/2000/svg">
    <path fill-rule="evenodd" clip-rule="evenodd"
        d="M37.9999 63.4384C52.8051 60.63 64 47.6224 64 32C64 14.3269 49.6731 0 32 0C14.3269 0 0 14.3269 0 32C0 47.6223 11.1948 60.63 26 63.4384V52.7639C25.2689 52.282 24.5505 51.8469 23.8537 51.4249C21.2482 49.847 18.9454 48.4524 17.4133 45.4747C16.0547 43.0807 16 35.5 16 34C16 34 21.6179 35.9151 26.2472 39.8199C28.4981 41.7186 30.0001 44.5 30.0001 56V63.9385C30.6615 63.9793 31.3283 64 32 64C32.672 64 33.3391 63.9793 34.0008 63.9385V56C34.0008 44.5 35.5028 41.7186 37.7537 39.8199C42.383 35.9151 48.0009 34 48.0009 34C48.0009 35.5 47.9463 43.0807 46.5876 45.4747C45.0555 48.4524 42.7527 49.847 40.1472 51.4249C39.4501 51.8471 38.7314 52.2823 37.9999 52.7646V63.4384ZM31.9557 4.02347C31.972 4.00789 31.9802 4 31.9796 4C41 14 31.9796 22 31.9796 22C23.2819 12.314 31.4526 4.50435 31.9557 4.02347ZM48.0009 16C48.0009 17.5 47.9463 25.0807 46.5876 27.4747C45.0555 30.4524 42.7527 31.847 40.1472 33.4249C38.2022 34.6028 36.0885 35.8829 34.0008 38C34.0008 26.5 35.5028 23.7186 37.7537 21.8199C42.383 17.9151 48.0009 16 48.0009 16ZM17.4133 27.4747C16.0547 25.0807 16 17.5 16 16C16 16 21.6179 17.9151 26.2472 21.8199C28.4981 23.7186 30.0001 26.5 30.0001 38C27.9124 35.8829 25.7987 34.6028 23.8537 33.4249C21.2482 31.847 18.9454 30.4524 17.4133 27.4747Z"
        fill="#00AFF4" />

</svg>
    